<svg xmlns="http://www.w3.org/2000/svg" xmlns:xlink="http://www.w3.org/1999/xlink" viewBox="0 0 847.47 1222.93"><defs><style>.cls-1{fill:none;}.cls-2{isolation:isolate;}.cls-3{fill:url(#linear-gradient);}.cls-4{opacity:0.21;mix-blend-mode:screen;}.cls-5{clip-path:url(#clip-path);}.cls-6{fill:#11162b;}.cls-7{fill:#11162c;}.cls-8{fill:#12162c;}.cls-9{fill:#13162c;}.cls-10{fill:#13172c;}.cls-11{fill:#14172c;}.cls-12{fill:#15172c;}.cls-13{fill:#16172d;}.cls-14{fill:#16182d;}.cls-15{fill:#17182d;}.cls-16{fill:#18182d;}.cls-17{fill:#19182d;}.cls-18{fill:#1a192e;}.cls-19{fill:#1b192e;}.cls-20{fill:#1c192e;}.cls-21{fill:#1d1a2e;}.cls-22{fill:#1e1a2f;}.cls-23{fill:#1f1a2f;}.cls-24{fill:#201b2f;}.cls-25{fill:#211b2f;}.cls-26{fill:#221b2f;}.cls-27{fill:#231b30;}.cls-28{fill:#231c30;}.cls-29{fill:#241c30;}.cls-30{fill:#251c30;}.cls-31{fill:#261d31;}.cls-32{fill:#271d31;}.cls-33{fill:#281d31;}.cls-34{fill:#291d31;}.cls-35{fill:#2a1e31;}.cls-36{fill:#2a1e32;}.cls-37{fill:#2b1e32;}.cls-38{fill:#2c1e32;}.cls-39{fill:#2d1f32;}.cls-40{fill:#2e1f33;}.cls-41{fill:#2f1f33;}.cls-42{fill:#302033;}.cls-43{fill:#312033;}.cls-44{fill:#322034;}.cls-45{fill:#332134;}.cls-46{fill:#342134;}.cls-47{fill:#352134;}.cls-48{fill:#362134;}.cls-49{fill:#362235;}.cls-50{fill:#372235;}.cls-51{fill:#382235;}.cls-52{fill:#392235;}.cls-53{fill:#3a2335;}.cls-54{fill:#3b2336;}.cls-55{fill:#3c2336;}.cls-56{fill:#3d2336;}.cls-57{fill:#3e2436;}.cls-58{fill:#3f2436;}.cls-59{fill:#402437;}.cls-60{fill:#412537;}.cls-61{fill:#422537;}.cls-62{fill:#432537;}.cls-63{fill:#442538;}.cls-64{fill:#452638;}.cls-65{fill:#462638;}.cls-66{fill:#472638;}.cls-67{fill:#482738;}.cls-68{fill:#492739;}.cls-69{fill:#4b2739;}.cls-70{fill:#4c2739;}.cls-71{fill:#4d2839;}.cls-72{fill:#4e283a;}.cls-73{fill:#4f283a;}.cls-74{fill:#50283a;}.cls-75{fill:#51293a;}.cls-76{fill:#52293a;}.cls-77{fill:#53293b;}.cls-78{fill:#54293b;}.cls-79{fill:#562a3b;}.cls-80{fill:#572a3b;}.cls-81{fill:#582a3b;}.cls-82{fill:#592a3c;}.cls-83{fill:#5a2b3c;}.cls-84{fill:#5c2b3c;}.cls-85{fill:#5d2b3c;}.cls-86{fill:#5e2c3c;}.cls-87{fill:#5f2c3d;}.cls-88{fill:#602c3d;}.cls-89{fill:#622c3d;}.cls-90{fill:#632d3d;}.cls-91{fill:#642d3d;}.cls-92{fill:#662d3e;}.cls-93{fill:#672d3e;}.cls-94{fill:#682e3e;}.cls-95{fill:#6a2e3e;}.cls-96{fill:#6b2e3e;}.cls-97{fill:#6c2e3f;}.cls-98{fill:#6e2f3f;}.cls-99{fill:#6f2f3f;}.cls-100{fill:#712f3f;}.cls-101{fill:#722f3f;}.cls-102{fill:#743040;}.cls-103{fill:#753040;}.cls-104{fill:#773040;}.cls-105{fill:#783040;}.cls-106{fill:#7a3140;}.cls-107{fill:#7b3140;}.cls-108{fill:#7d3141;}.cls-109{fill:#7f3141;}.cls-110{fill:#803241;}</style><linearGradient id="linear-gradient" x1="432.17" y1="1211.12" x2="432.17" y2="10.52" gradientUnits="userSpaceOnUse"><stop offset="0" stop-color="#5c374b"/><stop offset="0.25" stop-color="#402b3f"/><stop offset="0.54" stop-color="#261f34"/><stop offset="0.79" stop-color="#16182d"/><stop offset="1" stop-color="#11162b"/></linearGradient><clipPath id="clip-path" transform="translate(10.95 10.52)"><rect class="cls-1" width="830.6" height="1200.6"/></clipPath></defs><g class="cls-2"><g id="Layer_2" data-name="Layer 2"><g id="Layer_1-2" data-name="Layer 1"><rect class="cls-3" x="16.87" y="10.52" width="830.6" height="1200.6"/><g class="cls-4"><g class="cls-5"><rect class="cls-6" x="10.95" y="10.52" width="830.6" height="1200.6"/><path class="cls-6" d="M3.51-1.5H278V-6.23A707,707,0,0,1,501.82,149.66C629.06,281,707.39,462.07,706.65,661.67S626.22,1041.62,498,1171.86q-12,12.21-24.6,23.82-6.3,5.8-12.72,11.46v-5H-1.38V-1.5Z" transform="translate(10.95 10.52)"/><path class="cls-6" d="M-1.17-1.5H271.21V-4.14a701.4,701.4,0,0,1,222,154.68c126.25,130.33,204,310,203.23,508s-79.8,377-207,506.21q-23.85,24.23-49.9,46.07v-8.72H-1.38V-1.5Z" transform="translate(10.95 10.52)"/><path class="cls-6" d="M-1.38-1.5H264.38V-2A696,696,0,0,1,484.67,151.41C609.92,280.72,687,458.94,686.29,655.42s-79.17,374-205.39,502.22q-23.65,24-49.51,45.7v-1.24H-1.38Z" transform="translate(10.95 10.52)"/><path class="cls-6" d="M-1.38-1.5H242v-5q7.81,3.2,15.54,6.57A690.58,690.58,0,0,1,476.09,152.29c124.26,128.28,200.75,305.09,200,500s-78.54,371-203.75,498.23q-23.49,23.85-49.12,45.34-6.4,5.37-12.94,10.58v-4.35H-1.38Z" transform="translate(10.95 10.52)"/><path class="cls-7" d="M-1.38-1.5h221.1v-9q15.69,6,31,12.67a684.79,684.79,0,0,1,216.78,151c123.27,127.26,199.15,302.65,198.43,496S588,1017.25,463.81,1143.42q-23.3,23.65-48.73,45-12.7,10.65-25.91,20.68v-7H-1.38Z" transform="translate(10.95 10.52)"/><path class="cls-7" d="M-1.38-1.5H213.14V-8.33Q228.71-2.42,243.9,4.25A679.3,679.3,0,0,1,458.93,154c122.28,126.24,197.54,300.21,196.83,492s-77.29,365.11-200.5,490.26q-23.1,23.48-48.33,44.62-12.6,10.56-25.7,20.51-6.56,5-13.22,9.78v-9.12H-1.38Z" transform="translate(10.95 10.52)"/><path class="cls-8" d="M-1.38-1.5H206.56V-6.13Q222-.27,237.07,6.34A674,674,0,0,1,450.36,154.92c121.27,125.21,195.93,297.77,195.22,488s-76.66,362.14-198.87,486.27q-22.9,23.28-47.94,44.26-12.5,10.47-25.49,20.34-6.5,4.93-13.11,9.7v-1.4H-1.38Z" transform="translate(10.95 10.52)"/><path class="cls-8" d="M-1.38-1.5H200V-3.93Q215.3,1.87,230.24,8.44A668.12,668.12,0,0,1,441.78,155.8C562.06,280,636.11,451.13,635.4,639.81S559.37,999,438.17,1122.1a674.53,674.53,0,0,1-99.07,83v-3H-1.38Z" transform="translate(10.95 10.52)"/><path class="cls-8" d="M-1.38-1.5H193.4v-.23q15.19,5.76,30,12.26A662.68,662.68,0,0,1,433.2,156.68c119.29,123.15,192.72,292.88,192,480S549.82,992.89,429.62,1115a668.48,668.48,0,0,1-98.24,82.31q-6.63,4.54-13.35,8.92v-4.12H-1.38Z" transform="translate(10.95 10.52)"/><path class="cls-8" d="M-1.38-1.5H156.37v-8.74a642.6,642.6,0,0,1,60.21,22.87,657.18,657.18,0,0,1,208,144.92c118.3,122.13,191.12,290.45,190.43,476s-74.77,353.24-194,474.32a662.58,662.58,0,0,1-97.42,81.63q-13.12,9-26.69,17.36v-4.77H-1.38Z" transform="translate(10.95 10.52)"/><path class="cls-9" d="M-1.38-1.5H150.05V-7.95a638.32,638.32,0,0,1,59.7,22.67,651.74,651.74,0,0,1,206.3,143.71c117.3,121.1,189.51,288,188.82,472s-74.14,350.27-192.35,470.33a656.52,656.52,0,0,1-96.6,80.94q-13,8.93-26.47,17.22-6.72,4.14-13.55,8.13v-5H-1.38Z" transform="translate(10.95 10.52)"/><path class="cls-10" d="M-1.38-1.5H143.73V-5.66a627.49,627.49,0,0,1,59.19,22.48A646.11,646.11,0,0,1,407.47,159.31c116.31,120.07,187.9,285.56,187.22,468S521.18,974.61,404,1093.66a652.46,652.46,0,0,1-95.79,80.26q-25.81,17.7-53.32,32.86v-4.68H-1.38Z" transform="translate(10.95 10.52)"/><path class="cls-11" d="M-1.38-1.5H137.4V-3.37a623.38,623.38,0,0,1,58.69,22.28,640.4,640.4,0,0,1,202.8,141.28c115.31,119,186.3,283.12,185.62,464s-72.88,344.33-189.08,462.36a645.35,645.35,0,0,1-95,79.57q-25.59,17.55-52.86,32.58-6.81,3.75-13.72,7.34v-3.94H-1.38Z" transform="translate(10.95 10.52)"/><path class="cls-11" d="M-1.38-1.5H101V-10Q116.2-5.9,131.08-1.09A622,622,0,0,1,189.26,21,635,635,0,0,1,390.31,161.06c114.32,118,184.7,280.69,184,460s-72.26,341.36-187.46,458.37a639.46,639.46,0,0,1-94.15,78.89q-25.37,17.4-52.41,32.3-13.5,7.44-27.39,14.22v-2.75H-1.38Z" transform="translate(10.95 10.52)"/><path class="cls-11" d="M-1.38-1.5H95V-7.6q15,4,29.8,8.8,29.49,9.54,57.67,21.9A629.74,629.74,0,0,1,381.74,161.94c113.32,117,183.08,278.24,182.42,456s-71.63,338.39-185.83,454.39A628.69,628.69,0,0,1,178,1209.42v-7.32H-1.38Z" transform="translate(10.95 10.52)"/><path class="cls-12" d="M-1.38-1.5H88.9V-5.24q14.91,4,29.53,8.73A607,607,0,0,1,175.6,25.2,624,624,0,0,1,373.16,162.82c112.33,116,181.48,275.8,180.82,452s-71,335.42-184.2,450.4a622.81,622.81,0,0,1-198.57,135.88q-14,6-28.34,11.3V1202.1H-1.38Z" transform="translate(10.95 10.52)"/><path class="cls-12" d="M-1.38-1.5H53v-8.57A602.91,602.91,0,0,1,168.77,27.29,618.51,618.51,0,0,1,364.58,163.7c111.34,114.94,179.88,273.36,179.22,448s-70.37,332.46-182.56,446.42A617.51,617.51,0,0,1,164.42,1192.8q-13.87,5.94-28.09,11.2v-1.9H-1.38Z" transform="translate(10.95 10.52)"/><path class="cls-13" d="M-1.38-1.5H47.19V-7.64A597.29,597.29,0,0,1,162,29.39,613,613,0,0,1,356,164.57c110.35,113.92,178.27,270.92,177.62,444S463.88,938.07,352.69,1051a612.17,612.17,0,0,1-195.06,133.48q-27.51,11.76-56.32,20.83v-3.22H-1.38Z" transform="translate(10.95 10.52)"/><path class="cls-14" d="M-1.38-1.5H41.39V-5.21A592.58,592.58,0,0,1,155.12,31.48a607.53,607.53,0,0,1,192.31,134c109.35,112.89,176.66,268.48,176,440S454.33,932,344.14,1043.9a606.42,606.42,0,0,1-193.3,132.27,591.2,591.2,0,0,1-114,35.7v-9.77H-1.38Z" transform="translate(10.95 10.52)"/><path class="cls-15" d="M-1.38-1.5h37V-2.78A586.87,586.87,0,0,1,148.29,33.58,602.07,602.07,0,0,1,338.85,166.33c108.35,111.86,175,266,174.42,436s-68.49,323.56-177.68,434.46a600.81,600.81,0,0,1-191.54,131.07,585.48,585.48,0,0,1-113,35.37v-1.13H-1.38Z" transform="translate(10.95 10.52)"/><path class="cls-15" d="M-1.38-1.5H.49V-5.85Q15.26-3.46,29.8-.35a581.47,581.47,0,0,1,111.66,36A596.76,596.76,0,0,1,330.27,167.2C437.63,278,503.72,430.8,503.09,599.21s-67.86,320.58-176,430.47a595.44,595.44,0,0,1-189.8,129.87,580.52,580.52,0,0,1-111.92,35q-14.55,3-29.35,5.23h2.64Z" transform="translate(10.95 10.52)"/><path class="cls-16" d="M-1.38-1.5-5-3.37Q9.61-1,24,2.07a576.34,576.34,0,0,1,110.63,35.7A591,591,0,0,1,321.69,168.08c106.37,109.81,171.85,261.16,171.22,428S425.68,913.7,318.5,1022.58a589.85,589.85,0,0,1-188,128.66A575.28,575.28,0,0,1,19.58,1186q-14.41,3-29.08,5.19h8.12Z" transform="translate(10.95 10.52)"/><path class="cls-16" d="M-1.38-1.5v.61h-9.18Q3.94,1.45,18.21,4.5A571.07,571.07,0,0,1,127.8,39.86,585.58,585.58,0,0,1,313.12,169C418.49,277.74,483.35,427.67,482.74,593S416.13,907.61,310,1015.47a584.24,584.24,0,0,1-186.28,127.46,570.15,570.15,0,0,1-109.85,34.4q-7.14,1.45-14.34,2.74c-2.4.43-4.8.85-7.22,1.24h6.36Z" transform="translate(10.95 10.52)"/><path class="cls-17" d="M-1.38-1.5V4.08h-.39C3,5,7.71,5.92,12.41,6.93A565.7,565.7,0,0,1,121,42,580,580,0,0,1,304.54,169.84c104.38,107.76,168.63,256.27,168,420s-66,311.68-171.16,418.52a578.79,578.79,0,0,1-184.52,126.26A564.21,564.21,0,0,1,8.07,1168.69q-7.08,1.45-14.21,2.72h4.76Z" transform="translate(10.95 10.52)"/><path class="cls-17" d="M-1.38-1.5v8h-6q7,1.32,14.05,2.82A560,560,0,0,1,114.14,44.05,574.49,574.49,0,0,1,296,170.71c103.39,106.74,167,253.84,166.42,416S397,895.43,292.86,1001.25a573.38,573.38,0,0,1-182.77,125.06A558.15,558.15,0,0,1,2.31,1160.05q-3.49.72-7,1.4h3.33Z" transform="translate(10.95 10.52)"/><path class="cls-18" d="M-1.38-.53V10.35H-6.12q3.48.71,6.94,1.44A553.89,553.89,0,0,1,107.31,46.15,568.86,568.86,0,0,1,287.38,171.59C389.77,277.3,452.8,423,452.2,583.6S387.49,889.34,284.31,994.14A568,568,0,0,1,103.3,1118,554.54,554.54,0,0,1-3.44,1151.42h2.06Z" transform="translate(10.95 10.52)"/><path class="cls-18" d="M-1.38,2v12.2H-5a548.84,548.84,0,0,1,105.45,34A563.47,563.47,0,0,1,278.81,172.47c101.39,104.68,163.81,249,163.21,408S377.94,883.25,275.76,987A562.27,562.27,0,0,1,96.51,1109.69a548.59,548.59,0,0,1-105.7,33.09h7.81Z" transform="translate(10.95 10.52)"/><path class="cls-19" d="M-1.38,4.57V16.65h-9.39A542.78,542.78,0,0,1,93.65,50.34a557.68,557.68,0,0,1,176.58,123c100.4,103.65,162.21,246.51,161.62,404S368.39,877.16,267.21,979.92A556.52,556.52,0,0,1,89.72,1101.37a542,542,0,0,1-51.24,19q-13.09,4.11-26.46,7.57-6.67,1.72-13.42,3.29h0Z" transform="translate(10.95 10.52)"/><path class="cls-20" d="M-1.38,7.12v15H-3.17q6.66,1.61,13.26,3.38Q23.29,29,36.23,33.22A538.62,538.62,0,0,1,86.82,52.44,552.18,552.18,0,0,1,261.65,174.22c99.41,102.63,160.6,244.07,160,400s-62.83,296.84-163,398.59A551.2,551.2,0,0,1,82.93,1093.06a538.81,538.81,0,0,1-50.73,18.77q-13,4.07-26.2,7.49-6.61,1.73-13.29,3.26h5.91Z" transform="translate(10.95 10.52)"/><path class="cls-20" d="M-1.38,9.66V24.52H-9.1Q-2.5,26.11,4,27.86q13.07,3.51,25.88,7.65A535.39,535.39,0,0,1,80,54.53,546.75,546.75,0,0,1,253.07,175.1c98.42,101.6,159,241.63,158.42,396S349.29,865,250.12,965.71a545.9,545.9,0,0,1-174,119,532.71,532.71,0,0,1-50.23,18.58q-12.82,4-25.93,7.42-3.27.86-6.56,1.65h5.2Z" transform="translate(10.95 10.52)"/><path class="cls-21" d="M-1.38,12.21v18H-2Q10.9,33.7,23.58,37.8A523.72,523.72,0,0,1,73.16,56.63,541.11,541.11,0,0,1,244.5,176c97.42,100.57,157.39,239.19,156.81,392S339.74,858.88,241.57,958.6A540.29,540.29,0,0,1,69.35,1076.44a526.72,526.72,0,0,1-49.72,18.39q-12.7,4-25.67,7.35h4.66Z" transform="translate(10.95 10.52)"/><path class="cls-21" d="M-1.38,14.76V32.59H-8.09Q4.7,36,17.26,40.09A521.69,521.69,0,0,1,66.34,58.72,535.63,535.63,0,0,1,235.92,176.86c96.42,99.54,155.78,236.74,155.22,388S330.19,852.79,233,951.49A534.73,534.73,0,0,1,62.56,1068.13a521.46,521.46,0,0,1-49.21,18.2q-6.28,2-12.64,3.79-3.18.92-6.37,1.78h4.28Z" transform="translate(10.95 10.52)"/><path class="cls-22" d="M-1.38,17.31v21.2h-.17q6.29,1.86,12.49,3.86,24.82,8,48.57,18.45A530.25,530.25,0,0,1,227.34,177.73C322.77,276.26,381.52,412,381,561.74s-60.32,285-156.49,382.64a529.12,529.12,0,0,1-168.7,115.44,515.48,515.48,0,0,1-48.7,18q-6.22,2-12.52,3.76h4.07Z" transform="translate(10.95 10.52)"/><path class="cls-23" d="M-1.38,19.86v21H-7.74q6.21,1.83,12.35,3.82,24.59,8,48.07,18.25a524.65,524.65,0,0,1,166.08,115.7c94.44,97.5,152.57,231.87,152,380s-59.69,282-154.85,378.65A523.82,523.82,0,0,1,49,1051.51a512.22,512.22,0,0,1-48.2,17.83q-3.07,1-6.17,1.89h4Z" transform="translate(10.95 10.52)"/><path class="cls-23" d="M-1.38,22.41V47h-.33A505.36,505.36,0,0,1,45.85,65,519.18,519.18,0,0,1,210.19,179.49c93.44,96.47,151,229.42,150.41,376s-59.06,279-153.22,374.67a518.21,518.21,0,0,1-165.19,113q-23.29,10-47.69,17.64h4.12Z" transform="translate(10.95 10.52)"/><path class="cls-24" d="M-1.38,25V49.24H-8A501.06,501.06,0,0,1,39,67.1,513.87,513.87,0,0,1,201.61,180.36c92.45,95.45,149.36,227,148.82,372S292,828.43,198.83,923.06A512.89,512.89,0,0,1,35.4,1034.89q-11.52,4.92-23.32,9.3-5.91,2.18-11.87,4.22-3,1-6,2h4.39Z" transform="translate(10.95 10.52)"/><path class="cls-25" d="M-1.38,27.5v28H-2.52q5.88,2.07,11.71,4.28,11.63,4.43,23,9.41A508,508,0,0,1,193,181.24c91.46,94.42,147.75,224.55,147.22,368s-57.81,273.09-150,366.7A507.44,507.44,0,0,1,28.61,1026.58q-11.4,4.88-23.07,9.2Q-.29,1037.94-6.2,1040h4.82Z" transform="translate(10.95 10.52)"/><path class="cls-25" d="M-1.38,30.05V57.76H-9q5.82,2,11.58,4.23,11.51,4.38,22.75,9.3A502.54,502.54,0,0,1,184.45,182.12c90.46,93.39,146.15,222.1,145.62,364S272.89,816.25,181.74,908.84A501.68,501.68,0,0,1,21.82,1018.26q-11.28,4.83-22.82,9.1-2.9,1.08-5.79,2.11h5.41Z" transform="translate(10.95 10.52)"/><path class="cls-26" d="M-1.38,32.6V64.19H-4q11.39,4.32,22.5,9.2A497.07,497.07,0,0,1,175.88,183c89.46,92.36,144.54,219.66,144,360s-56.55,267.16-146.7,358.73A496.07,496.07,0,0,1,15,1010q-11.16,4.78-22.57,9h6.16Z" transform="translate(10.95 10.52)"/><path class="cls-27" d="M-1.38,35.15V66.39h-9.17Q.7,70.66,11.7,75.48A491.6,491.6,0,0,1,167.3,183.87c88.47,91.34,142.93,217.23,142.41,356S253.79,804.06,164.64,894.62a490.62,490.62,0,0,1-156.4,107c-3.68,1.58-7.38,3.1-11.1,4.59h1.48Z" transform="translate(10.95 10.52)"/><path class="cls-28" d="M-1.38,37.7V73H-6.06Q-.57,75.2,4.87,77.58A486.13,486.13,0,0,1,158.72,184.75c87.48,90.31,141.33,214.78,140.82,352S244.24,798,156.09,887.51A485.06,485.06,0,0,1,1.45,993.33q-5.46,2.34-11,4.54h8.14Z" transform="translate(10.95 10.52)"/><path class="cls-29" d="M-1.38,40.25V79.67H-2a480.58,480.58,0,0,1,152.1,106c86.49,89.28,139.73,212.34,139.22,348S234.69,791.88,147.54,880.4A479.45,479.45,0,0,1-5.34,985h4Z" transform="translate(10.95 10.52)"/><path class="cls-30" d="M-1.38,42.79v39H-8.79A475,475,0,0,1,141.57,186.51c85.49,88.26,138.11,209.9,137.61,344S225.14,785.79,139,873.3a480,480,0,0,1-70.41,59q-19,13-39.19,24.15Q19.29,962,8.91,967.08,3.72,969.62-1.54,972h.16Z" transform="translate(10.95 10.52)"/><path class="cls-30" d="M-1.38,45.34V88.59h-3.8Q0,91,5.11,93.57q10.23,5.1,20.17,10.69,19.89,11.16,38.56,24.21A474.92,474.92,0,0,1,133,187.38c84.49,87.24,136.51,207.46,136,340S215.6,779.7,130.45,866.19a473.39,473.39,0,0,1-69.59,58.3q-18.75,12.85-38.74,23.88-10,5.49-20.25,10.51-5.13,2.5-10.33,4.88h7.08Z" transform="translate(10.95 10.52)"/><path class="cls-31" d="M-1.38,47.89V95.55H-2q10.11,5,19.93,10.56,19.65,11,38.1,23.93a469,469,0,0,1,68.34,58.22c83.5,86.21,134.91,205,134.42,336S206.05,773.61,121.9,859.08A467,467,0,0,1,53.13,916.7q-18.52,12.7-38.28,23.59-9.87,5.43-20,10.39h3.78Z" transform="translate(10.95 10.52)"/><path class="cls-32" d="M-1.38,50.44V97.53H-9q10,5,19.7,10.44,19.41,10.91,37.65,23.64a461.93,461.93,0,0,1,67.52,57.53c82.51,85.18,133.3,202.58,132.82,332S196.5,767.52,113.35,852A461.53,461.53,0,0,1,45.4,908.9Q27.1,921.46,7.58,932.22q-4.87,2.67-9.82,5.25h.86Z" transform="translate(10.95 10.52)"/><path class="cls-32" d="M-1.38,53v51.56H-6.31q4.86,2.58,9.66,5.27,19.19,10.79,37.2,23.36A457.1,457.1,0,0,1,107.25,190C188.77,274.17,239,390.15,238.47,518S187,761.43,104.81,844.86a456.85,456.85,0,0,1-67.14,56.25q-18.09,12.4-37.37,23-4.81,2.65-9.69,5.19h8Z" transform="translate(10.95 10.52)"/><path class="cls-33" d="M-1.38,55.54v56.14H-4Q15,122.32,32.78,134.75a451.75,451.75,0,0,1,65.9,56.14c80.52,83.13,130.08,197.7,129.61,324s-50.89,240.44-132,322.85a451,451,0,0,1-66.32,55.57Q12.08,905.56-7,916.06h5.59Z" transform="translate(10.95 10.52)"/><path class="cls-34" d="M-1.38,58.08V118.9H-2q4.61,2.75,9.14,5.59,9.07,5.7,17.86,11.83A445.79,445.79,0,0,1,90.1,191.77c79.53,82.1,128.48,195.26,128,320S167.85,749.24,87.71,830.64a444.91,444.91,0,0,1-65.49,54.88q-8.84,6-17.95,11.67Q-.29,900-4.91,902.7h3.53Z" transform="translate(10.95 10.52)"/><path class="cls-35" d="M-1.38,60.63v60.06h-8q4.55,2.7,9,5.52,9,5.63,17.63,11.68a440.52,440.52,0,0,1,64.27,54.76c78.53,81.07,126.88,192.81,126.42,316S158.3,743.15,79.16,823.54a440.71,440.71,0,0,1-64.67,54.19q-8.71,6-17.72,11.52h1.85Z" transform="translate(10.95 10.52)"/><path class="cls-36" d="M-1.38,63.18v64.75H-7.92q8.85,5.55,17.41,11.53a434.46,434.46,0,0,1,63.45,54.07c77.54,80,125.27,190.37,124.82,312s-49,231.53-127.14,310.9a434.72,434.72,0,0,1-63.86,53.5q-8.61,5.9-17.5,11.38h9.36Z" transform="translate(10.95 10.52)"/><path class="cls-37" d="M-1.38,65.73v69.51H-6.8c2.87,1.89,5.71,3.83,8.53,5.79A430.27,430.27,0,0,1,64.37,194.4c76.54,79,123.66,187.94,123.21,308S139.2,731,62.07,809.32A428.82,428.82,0,0,1-1,862.14q-4.24,2.91-8.57,5.72h8.16Z" transform="translate(10.95 10.52)"/><path class="cls-38" d="M-1.38,68.28V142.6H-6a424.38,424.38,0,0,1,61.83,52.68c75.55,78,122.06,185.49,121.61,304S129.65,724.88,53.52,802.21A422.86,422.86,0,0,1-8.7,854.34h7.32Z" transform="translate(10.95 10.52)"/><path class="cls-39" d="M-1.38,70.83V150H-5.64q4,3,8,6,7.94,6.13,15.57,12.64,15.28,13,29.27,27.47c74.56,77,120.45,183,120,300S120.1,718.79,45,795.1Q30.89,809.41,15.5,822.31q-7.68,6.44-15.67,12.5-4,3-8.06,6h6.85Z" transform="translate(10.95 10.52)"/><path class="cls-39" d="M-1.38,73.37v84.09H-5.61q7.83,6.06,15.37,12.48Q24.82,182.78,38.63,197c73.57,76,118.85,180.62,118.42,296S110.55,712.7,36.42,788Q22.53,802.11,7.35,814.84q-7.59,6.35-15.47,12.33h6.74Z" transform="translate(10.95 10.52)"/><path class="cls-40" d="M-1.38,75.92v89H-5.94q3.8,3.08,7.51,6.24,14.86,12.66,28.49,26.73c72.56,74.92,117.24,178.17,116.81,292s-45.87,216.69-119,291Q14.17,794.82-.81,807.36q-3.73,3.14-7.55,6.18h7Z" transform="translate(10.95 10.52)"/><path class="cls-41" d="M-1.38,78.47v93.95H-6.62q14.67,12.5,28.1,26.37c71.57,73.89,115.63,175.73,115.21,288s-45.24,213.73-117.36,287Q5.8,787.5-9,799.89h7.58Z" transform="translate(10.95 10.52)"/><path class="cls-42" d="M-1.38,81v98.89H-7.65q3.54,3.17,7,6.42,6.93,6.51,13.55,13.34c70.58,72.86,114,173.29,113.61,284S81.9,694.42,10.78,766.67q-6.66,6.76-13.65,13.21h1.49Z" transform="translate(10.95 10.52)"/><path class="cls-43" d="M-1.38,83.57V187.4H-9q6.82,6.4,13.35,13.14c69.59,71.84,112.43,170.85,112,280s-44,207.78-114.11,279q-3.28,3.33-6.65,6.6h3Z" transform="translate(10.95 10.52)"/><path class="cls-43" d="M-1.38,86.12v115.3H-4.25c68.59,70.81,110.81,168.41,110.41,276S62.8,682.24-6.31,752.45h4.93Z" transform="translate(10.95 10.52)"/><path class="cls-44" d="M-1.38,88.67V208.92H-6.57q3.09,3.35,6.11,6.77,6,6.84,11.73,14Q22.69,244,32.74,259.33a385.83,385.83,0,0,1,34.33,65.38A390.67,390.67,0,0,1,96,474.3,390.77,390.77,0,0,1,66,623.64a386.48,386.48,0,0,1-34.82,65.07Q21,704,9.44,718.18,3.68,725.26-2.4,732.06h1Z" transform="translate(10.95 10.52)"/><path class="cls-45" d="M-1.38,91.21V216.37H-9.22q5.93,6.75,11.56,13.78,11.24,14.06,21.16,29.22a380.58,380.58,0,0,1,33.82,64.41A385,385,0,0,1,85.8,471.18,384.82,384.82,0,0,1,56.22,618.32a379.65,379.65,0,0,1-34.31,64.12q-10,15-21.37,29-2.83,3.49-5.76,6.91h3.84Z" transform="translate(10.95 10.52)"/><path class="cls-46" d="M-1.38,93.76V230.62H-6.6q11.09,13.86,20.85,28.79a375.13,375.13,0,0,1,33.32,63.45,379.45,379.45,0,0,1,28.06,145.2A379.11,379.11,0,0,1,46.48,613a373.72,373.72,0,0,1-33.79,63.16Q2.82,691-8.37,704.76h7Z" transform="translate(10.95 10.52)"/><path class="cls-47" d="M-1.38,96.31V245H-4.94Q.19,252.11,5,259.45a369.3,369.3,0,0,1,32.82,62.49,373.68,373.68,0,0,1,27.63,143,373.4,373.4,0,0,1-28.7,142.75A369,369,0,0,1,3.47,669.89q-4.86,7.29-10,14.34h5.2Z" transform="translate(10.95 10.52)"/><path class="cls-48" d="M-1.38,98.86V259.48H-4.25A363.55,363.55,0,0,1,28.06,321,367.71,367.71,0,0,1,55.27,461.81,367.68,367.68,0,0,1,27,602.36,362.82,362.82,0,0,1-5.76,663.61h4.38Z" transform="translate(10.95 10.52)"/><path class="cls-49" d="M-1.38,101.41V274H-4.51q4.32,7.35,8.31,14.93,8,15.17,14.51,31.16a362.05,362.05,0,0,1,26.78,138.6A361.73,361.73,0,0,1,17.27,597q-6.64,15.94-14.74,31-4,7.54-8.42,14.86h4.51Z" transform="translate(10.95 10.52)"/><path class="cls-50" d="M-1.38,104V288.5H-5.73q7.85,14.92,14.29,30.67a356.49,356.49,0,0,1,26.36,136.4A356.25,356.25,0,0,1,7.54,591.73Q1,607.41-7,622.27h5.59Z" transform="translate(10.95 10.52)"/><path class="cls-51" d="M-1.38,106.5V303H-7.87q3.51,7.55,6.67,15.29A350.51,350.51,0,0,1,24.74,452.44a350.39,350.39,0,0,1-26.94,134h.82Z" transform="translate(10.95 10.52)"/><path class="cls-52" d="M-1.38,109.05V317.32h-9.57a345,345,0,0,1,25.51,132,348.26,348.26,0,0,1-7,68.25Q4.22,534.1-.69,550-3.13,558-5.95,565.73h4.57Z" transform="translate(10.95 10.52)"/><path class="cls-53" d="M-1.38,111.6V379H-2A341.73,341.73,0,0,1,4.38,446.2a341.48,341.48,0,0,1-6.86,67.11h1.1Z" transform="translate(10.95 10.52)"/><path class="cls-54" d="M-1.38,114.15v0Z" transform="translate(10.95 10.52)"/><path class="cls-55" d="M-1.38,116.7v0Z" transform="translate(10.95 10.52)"/><path class="cls-56" d="M-1.38,119.25v0Z" transform="translate(10.95 10.52)"/><path class="cls-57" d="M-1.38,121.79v0Z" transform="translate(10.95 10.52)"/><path class="cls-58" d="M-1.38,124.34v0Z" transform="translate(10.95 10.52)"/><path class="cls-59" d="M-1.38,126.89v0Z" transform="translate(10.95 10.52)"/><path class="cls-59" d="M-1.38,129.44v0Z" transform="translate(10.95 10.52)"/><path class="cls-60" d="M-1.38,132v0Z" transform="translate(10.95 10.52)"/><path class="cls-61" d="M-1.38,134.54v0Z" transform="translate(10.95 10.52)"/><path class="cls-62" d="M-1.38,137.09v0Z" transform="translate(10.95 10.52)"/><path class="cls-63" d="M-1.38,139.63v0Z" transform="translate(10.95 10.52)"/><path class="cls-64" d="M-1.38,142.18v0Z" transform="translate(10.95 10.52)"/><path class="cls-65" d="M-1.38,144.73v0Z" transform="translate(10.95 10.52)"/><path class="cls-66" d="M-1.38,147.28v0Z" transform="translate(10.95 10.52)"/><path class="cls-67" d="M-1.38,149.83v0Z" transform="translate(10.95 10.52)"/><path class="cls-68" d="M-1.38,152.38v0Z" transform="translate(10.95 10.52)"/><path class="cls-69" d="M-1.38,154.92v0Z" transform="translate(10.95 10.52)"/><path class="cls-70" d="M-1.38,157.47v0Z" transform="translate(10.95 10.52)"/><path class="cls-71" d="M-1.38,160v0Z" transform="translate(10.95 10.52)"/><path class="cls-72" d="M-1.38,162.57v0Z" transform="translate(10.95 10.52)"/><path class="cls-73" d="M-1.38,165.12v0Z" transform="translate(10.95 10.52)"/><path class="cls-74" d="M-1.38,167.67v0Z" transform="translate(10.95 10.52)"/><path class="cls-75" d="M-1.38,170.21v0Z" transform="translate(10.95 10.52)"/><path class="cls-76" d="M-1.38,172.76v0Z" transform="translate(10.95 10.52)"/><path class="cls-77" d="M-1.38,175.31v0Z" transform="translate(10.95 10.52)"/><path class="cls-78" d="M-1.38,177.86v0Z" transform="translate(10.95 10.52)"/><path class="cls-79" d="M-1.38,180.41v0Z" transform="translate(10.95 10.52)"/><path class="cls-80" d="M-1.38,183v0Z" transform="translate(10.95 10.52)"/><path class="cls-81" d="M-1.38,185.51v0Z" transform="translate(10.95 10.52)"/><path class="cls-82" d="M-1.38,188.05v0Z" transform="translate(10.95 10.52)"/><path class="cls-83" d="M-1.38,190.6v0Z" transform="translate(10.95 10.52)"/><path class="cls-84" d="M-1.38,193.15v0Z" transform="translate(10.95 10.52)"/><path class="cls-85" d="M-1.38,195.7v0Z" transform="translate(10.95 10.52)"/><path class="cls-86" d="M-1.38,198.25v0Z" transform="translate(10.95 10.52)"/><path class="cls-87" d="M-1.38,200.8v0Z" transform="translate(10.95 10.52)"/><path class="cls-88" d="M-1.38,203.34v0Z" transform="translate(10.95 10.52)"/><path class="cls-89" d="M-1.38,205.89v0Z" transform="translate(10.95 10.52)"/><path class="cls-90" d="M-1.38,208.44v0Z" transform="translate(10.95 10.52)"/><path class="cls-91" d="M-1.38,211v0Z" transform="translate(10.95 10.52)"/><path class="cls-92" d="M-1.38,213.54v0Z" transform="translate(10.95 10.52)"/><path class="cls-93" d="M-1.38,216.09v0Z" transform="translate(10.95 10.52)"/><path class="cls-94" d="M-1.38,218.63v0Z" transform="translate(10.95 10.52)"/><path class="cls-95" d="M-1.38,221.18v0Z" transform="translate(10.95 10.52)"/><path class="cls-96" d="M-1.38,223.73v0Z" transform="translate(10.95 10.52)"/><path class="cls-97" d="M-1.38,226.28v0Z" transform="translate(10.95 10.52)"/><path class="cls-98" d="M-1.38,228.83v0Z" transform="translate(10.95 10.52)"/><path class="cls-99" d="M-1.38,231.38v0Z" transform="translate(10.95 10.52)"/><path class="cls-100" d="M-1.38,233.93v0Z" transform="translate(10.95 10.52)"/><path class="cls-101" d="M-1.38,236.47v0Z" transform="translate(10.95 10.52)"/><path class="cls-102" d="M-1.38,239v0Z" transform="translate(10.95 10.52)"/><path class="cls-103" d="M-1.38,241.57v0Z" transform="translate(10.95 10.52)"/><path class="cls-104" d="M-1.38,244.12v0Z" transform="translate(10.95 10.52)"/><path class="cls-105" d="M-1.38,246.67v0Z" transform="translate(10.95 10.52)"/><path class="cls-106" d="M-1.38,249.22v0Z" transform="translate(10.95 10.52)"/><path class="cls-107" d="M-1.38,251.76v0Z" transform="translate(10.95 10.52)"/><path class="cls-108" d="M-1.38,254.31v0Z" transform="translate(10.95 10.52)"/><path class="cls-109" d="M-1.38,256.86v0Z" transform="translate(10.95 10.52)"/><path class="cls-110" d="M-1.38,259.41v0Z" transform="translate(10.95 10.52)"/></g></g></g></g></g></svg>