<svg xmlns="http://www.w3.org/2000/svg" viewBox="0 0 502.18 598.35"><defs><style>.cls-1{fill:#fff7d1;}.cls-2{fill:#eabd92;}.cls-3{fill:#231f20;}.cls-4{fill:#c05f33;}.cls-5{fill:#944e22;}.cls-6{fill:#fff;}</style></defs><g id="Layer_2" data-name="Layer 2"><g id="Layer_1-2" data-name="Layer 1"><path class="cls-1" d="M428.91,370s-55.32-22.62-131.44,30.21c.62,19.79-25.92,41.55-38.93,44.87-8.75,2.24-18,1.62-27.71-2.25-13.44-5.38-37.15-23.76-31.57-43.71C124,347.84,65.89,378.18,65.89,378.18c-37.78,20.87-32,64.3-22.55,98.89,21.94,29,49.33,50,49.78,50.33,16.07,12.31,28.13,21,39.11,28.32,63,37.75,125.59,33.77,167,23.78,45.18-10.9,75.76-31.12,76.06-31.33,8.18-5.76,17.4-12.57,28.07-20.75.48-.37,30.11-23.06,52.41-53.87C464,439,466.9,394.46,428.91,370Z"/><path class="cls-2" d="M455.78,19.51c-42.67,22.57-106.14,86.91-119.39,129.82a5.47,5.47,0,0,1-7,3.79,6.14,6.14,0,0,1-3.5-7.6c.81-2.63,1.8-5.32,2.92-8.05-19.79-9-49.31-14.56-80.35-15h-.39c-30.16.45-58.86,5.72-78.63,14.26.47,1.31.92,2.62,1.31,3.9a6.12,6.12,0,0,1-3.5,7.6,5.45,5.45,0,0,1-7-3.79C147,101.51,87.2,41,46.55,19.48c-11-5.81-20.13-8.37-25.49-7.2C11.3,27.38-7.13,148.94,56.83,248.42l1.09-1.06c-.24.55-.49,1.09-.73,1.64l0,0a6.33,6.33,0,0,1-1.36,8.37,5.22,5.22,0,0,1-2.41,1A727.33,727.33,0,0,0,22.51,360.9c-3.33,14.93-7,34.56-6.07,54,1.08,21.82,12.88,43.63,26.9,62.17-9.49-34.59-15.23-78,22.55-98.89,0,0,58.08-30.34,133.37,20.89a23.73,23.73,0,0,1,1-3c9.75-22.74,45.42-15.44,63.46-17.32,7.46-.77,15.54-1.66,22,2.68,8.14,5.48,11.49,12,11.71,18.73C373.59,347.33,428.91,370,428.91,370c38,24.51,35.08,69.07,26.84,103.6,12.86-17.76,23.29-38.2,24.3-58.65,1-19.45-2.74-39.08-6.07-54a729.39,729.39,0,0,0-28.34-95.7,5.36,5.36,0,0,1-4.12,2,5.22,5.22,0,0,1-3.33-1.21,6.35,6.35,0,0,1-1.09-8.41c40.35-58,51.4-119.27,53.56-160.46,2.43-46.38-5.67-78-9.92-84.85C477.5,11.65,470.17,11.9,455.78,19.51ZM60.56,207.23c-38.16-99-19.88-154-19.88-154,45,11.79,79.41,56,95.8,81.14,6.86,10.5,10.59,17.66,10.59,17.66-44,22.81-76.6,79.05-76.6,79.05C66.79,222.84,63.53,214.92,60.56,207.23Zm378.84,0c-3,7.69-6.23,15.61-9.91,23.82,0,0-32.62-56.24-76.59-79.05,0,0,3.72-7.16,10.58-17.66,16.39-25.1,50.8-69.35,95.8-81.14C459.28,53.2,477.56,108.21,439.4,207.23Z"/><path class="cls-3" d="M485.71,1.32c-8-3.07-19.73-.58-34.8,7.39-39.09,20.68-94.08,73.73-117.1,118C312.58,116.86,282,111,248.93,110.44h-1.38c-32,.52-61.61,6-82.73,15.32-21-44-74.46-96.48-113.41-117.08-15.19-8-27.07-10.5-35.3-7.36a5.55,5.55,0,0,0-2,1.32C-.65,17.92-18.39,147.26,44.58,250.26A738.59,738.59,0,0,0,11.73,358.08c-3.51,15.72-7.4,36.47-6.37,57.46,3.06,61.81,78.21,119.29,81.38,121.69,16.3,12.49,28.58,21.37,39.8,28.81l.21.13a222.91,222.91,0,0,0,116.1,32.18A252.15,252.15,0,0,0,302,591.14c46.89-11.4,77.79-31.88,79.19-32.82,8.41-5.93,17.75-12.82,28.5-21.07,3.2-2.42,78.36-59.9,81.42-121.71,1-21-2.86-41.74-6.37-57.46A739.84,739.84,0,0,0,453.28,253.8c36.06-57,46.34-115.72,48.45-156,2.4-45.77-5.32-86.17-14-95.19A5.64,5.64,0,0,0,485.71,1.32Zm5,95.83c-2.16,41.19-13.21,102.47-53.56,160.46a6.35,6.35,0,0,0,1.09,8.41,5.22,5.22,0,0,0,3.33,1.21,5.36,5.36,0,0,0,4.12-2A729.39,729.39,0,0,1,474,360.9c3.33,14.92,7,34.55,6.07,54-1,20.45-11.44,40.89-24.3,58.65-22.3,30.81-51.93,53.5-52.41,53.87-10.67,8.18-19.89,15-28.07,20.75-.3.21-30.88,20.43-76.06,31.33-41.39,10-103.94,14-167-23.78-11-7.28-23-16-39.11-28.32-.45-.34-27.84-21.33-49.78-50.33-14-18.54-25.82-40.35-26.9-62.17-1-19.44,2.74-39.07,6.07-54A727.33,727.33,0,0,1,53.44,258.42a5.22,5.22,0,0,0,2.41-1A6.33,6.33,0,0,0,57.21,249l0,0c.24-.55.49-1.09.73-1.64l-1.09,1.06c-64-99.48-45.53-221-35.77-236.14,5.36-1.17,14.5,1.39,25.49,7.2C87.2,41,147,101.51,160.21,144.42a5.45,5.45,0,0,0,7,3.79,6.12,6.12,0,0,0,3.5-7.6c-.39-1.28-.84-2.59-1.31-3.9,19.77-8.54,48.47-13.81,78.63-14.26h.39c31,.46,60.56,6,80.35,15-1.12,2.73-2.11,5.42-2.92,8.05a6.14,6.14,0,0,0,3.5,7.6,5.47,5.47,0,0,0,7-3.79c13.25-42.91,76.72-107.25,119.39-129.82,14.39-7.61,21.72-7.86,25-7.21C485,19.15,493.09,50.77,490.66,97.15Z"/><path class="cls-4" d="M136.48,134.34C120.09,109.24,85.68,65,40.68,53.2c0,0-18.28,55,19.88,154C65.74,183.45,82.52,141.16,136.48,134.34Z"/><path class="cls-5" d="M147.07,152s-3.73-7.16-10.59-17.66c-54,6.82-70.74,49.11-75.92,72.89,3,7.69,6.23,15.61,9.91,23.82C70.47,231.05,103.09,174.81,147.07,152Z"/><path class="cls-4" d="M363.48,134.34c54,6.82,70.74,49.11,75.92,72.89,38.16-99,19.88-154,19.88-154C414.28,65,379.87,109.24,363.48,134.34Z"/><path class="cls-5" d="M363.48,134.34C356.62,144.84,352.9,152,352.9,152c44,22.81,76.59,79.05,76.59,79.05,3.68-8.21,6.95-16.13,9.91-23.82C434.22,183.45,417.44,141.16,363.48,134.34Z"/><path class="cls-3" d="M230.83,442.78c9.67,3.87,19,4.49,27.71,2.25,13-3.32,39.55-25.08,38.93-44.87-.22-6.74-3.57-13.25-11.71-18.73-6.46-4.34-14.54-3.45-22-2.68-18,1.88-53.71-5.42-63.46,17.32a23.73,23.73,0,0,0-1,3C193.68,419,217.39,437.4,230.83,442.78Zm-14.52-55.26c7.81-2.75,25-.77,16.5,13.57a16.43,16.43,0,0,1-7,6c-4.82,2.46-10.37,3.67-14.93,1C200.75,402.09,207.44,390.65,216.31,387.52Z"/><path class="cls-6" d="M210.91,408.11c4.56,2.69,10.11,1.48,14.93-1a16.43,16.43,0,0,0,7-6c8.51-14.34-8.69-16.32-16.5-13.57C207.44,390.65,200.75,402.09,210.91,408.11Z"/><path class="cls-6" d="M307.62,269.61c6.33-11.67,23.17-28.28,40.35-37.09,12.95-6.65,31-10.13,40.13-5.43,11.14,5.74,3.59,19.26-5.9,30C362.65,279.17,285.68,310.07,307.62,269.61Z"/><path class="cls-6" d="M320,318.48c2.42-10.85,10.51-25.4,19.71-32.18,6.92-5.11,17.25-6.49,23.2-.79,7.28,7,4.35,19.53-.06,29.09C353.81,334.28,311.64,356.11,320,318.48Z"/><path class="cls-3" d="M389.69,273.84C375,269,358.76,273,342,278.15c-23,7.1-34.86,44-17.59,67.34,29.13,39.42,76.77-20.21,90.11-51.35C407,283,398.61,276.78,389.69,273.84Zm-35,33.24c-2.88,6.9-7.42,13.53-13.91,16-14.46,5.56-16.46-10.44-10.09-22,5.59-10.16,23.94-26.13,26.32-5.95C357.5,299.2,356.28,303.32,354.71,307.08Z"/><path class="cls-6" d="M113.42,257.23c-9.49-10.73-17-24.25-5.9-30,9.12-4.7,27.18-1.22,40.13,5.43,17.18,8.81,34,25.42,40.34,37.09C209.94,310.23,133,279.32,113.42,257.23Z"/><path class="cls-6" d="M132.74,314.75c-4.41-9.56-7.34-22.11-.07-29.09,6-5.7,16.28-4.32,23.21.79,9.19,6.78,17.29,21.33,19.71,32.18C184,356.26,141.81,334.43,132.74,314.75Z"/><path class="cls-3" d="M81.07,294.29c13.34,31.14,61,90.77,90.11,51.35,17.27-23.36,5.45-60.24-17.59-67.34-16.73-5.15-33-9.15-47.66-4.31C97,276.93,88.64,283.12,81.07,294.29Zm57.52,1c2.38-20.18,20.72-4.21,26.32,6,6.36,11.57,4.37,27.57-10.09,22-6.49-2.48-11-9.12-13.91-16C139.34,303.47,138.11,299.35,138.59,295.28Z"/><path class="cls-3" d="M342.66,474.9c-2.06,1.82-4.1,3.71-6.19,5.65-13.35,12.41-30,27.85-67,34.47-1.05.18-2.1.36-3.13.52-34.44,5.42-55.5-3.4-72.52-10.52l-4.48-1.87a6.28,6.28,0,0,1-3.38-7.74A5.33,5.33,0,0,1,193,492c1.5.61,3,1.25,4.56,1.9,17.1,7.16,36.46,15.22,69.77,9.33,34.07-6.08,48.77-19.74,61.74-31.79,2.17-2,4.29-4,6.42-5.86a5.31,5.31,0,0,1,7.83,1A6.27,6.27,0,0,1,342.66,474.9Z"/></g></g></svg>