<svg xmlns="http://www.w3.org/2000/svg" viewBox="0 0 2219.28 778.74"><defs><style>.cls-1{fill:#fff8d0;}.cls-2{fill:#eae7d9;}.cls-3{fill:#fff6cf;}.cls-4{fill:#e9bc92;}.cls-5{fill:#221f1f;}.cls-6{fill:#bf5e33;}.cls-7{fill:#924e22;}.cls-8{fill:#fff;}.cls-9{fill:#231f20;}.cls-10{fill:#f281b3;}.cls-11{fill:#f5a0c4;}</style></defs><g id="Layer_2" data-name="Layer 2"><g id="Layer_1-2" data-name="Layer 1"><circle class="cls-1" cx="2163.08" cy="102.4" r="56.2" transform="translate(561.15 1559.52) rotate(-45)"/><circle class="cls-2" cx="2197.24" cy="117.53" r="5.21"/><circle class="cls-2" cx="2141.14" cy="83.79" r="18.02"/><circle class="cls-2" cx="2136.11" cy="129.88" r="5.85"/><path class="cls-3" d="M558.22,481.49s-72-29.45-171.07,39.31c.81,25.75-33.74,54.08-50.66,58.4-11.4,2.91-23.48,2.1-36.06-2.93-17.5-7-48.36-30.93-41.1-56.89-98-66.67-173.57-27.18-173.57-27.18-49.17,27.16-41.71,83.68-29.35,128.7C85,658.65,120.61,686,121.2,686.4c20.91,16,36.6,27.39,50.9,36.86,82,49.13,163.45,44,217.32,31,58.79-14.18,98.59-40.51,99-40.77,10.65-7.51,22.64-16.37,36.53-27,.63-.48,39.18-30,68.22-70.12C603.87,571.38,607.66,513.38,558.22,481.49Z"/><path class="cls-4" d="M593.19,25.39c-55.54,29.37-138.14,113.11-155.38,169a7.11,7.11,0,0,1-9.14,4.93,8,8,0,0,1-4.55-9.89c1.05-3.42,2.34-6.92,3.8-10.48-25.77-11.7-64.18-18.94-104.58-19.54h-.51c-39.25.58-76.6,7.44-102.33,18.56.61,1.71,1.19,3.4,1.71,5.07a8,8,0,0,1-4.56,9.9,7.12,7.12,0,0,1-9.14-4.94c-17.23-55.85-95-134.62-147.93-162.61C46.29,17.79,34.39,14.45,27.41,16,14.71,35.64-9.27,193.84,74,323.32l1.43-1.39c-.32.72-.65,1.42-1,2.14l0,0A8.23,8.23,0,0,1,72.69,335a6.8,6.8,0,0,1-3.14,1.33A946,946,0,0,0,29.3,469.7c-4.34,19.44-9.15,45-7.9,70.28,1.4,28.4,16.76,56.79,35,80.92-12.36-45-19.82-101.54,29.35-128.7,0,0,75.59-39.49,173.57,27.18a30.73,30.73,0,0,1,1.35-3.91c12.7-29.58,59.12-20.09,82.6-22.53,9.7-1,20.23-2.17,28.63,3.49,10.6,7.12,15,15.6,15.24,24.37,99.07-68.76,171.07-39.31,171.07-39.31,49.44,31.89,45.65,89.89,34.94,134.82,16.72-23.1,30.3-49.71,31.62-76.33,1.24-25.31-3.57-50.85-7.9-70.28A949.6,949.6,0,0,0,580,345.15a7,7,0,0,1-5.35,2.65,6.83,6.83,0,0,1-4.34-1.58,8.25,8.25,0,0,1-1.42-11c52.51-75.47,66.89-155.22,69.7-208.83C641.75,66.08,631.2,24.92,625.68,16,621.46,15.16,611.92,15.48,593.19,25.39ZM78.82,269.71C29.15,140.83,52.94,69.24,52.94,69.24c58.58,15.34,103.35,72.94,124.69,105.6,8.92,13.66,13.77,23,13.77,23-57.23,29.68-99.69,102.88-99.69,102.88C86.92,290,82.68,279.71,78.82,269.71Zm493.05,0c-3.86,10-8.1,20.31-12.89,31,0,0-42.46-73.2-99.69-102.88,0,0,4.85-9.33,13.77-23,21.34-32.66,66.11-90.26,124.69-105.6C597.75,69.24,621.54,140.83,571.87,269.71Z"/><path class="cls-5" d="M632.14,1.72c-10.43-4-25.67-.75-45.29,9.62C536,38.25,464.41,107.3,434.44,164.9c-27.62-12.81-67.38-20.47-110.46-21.16a4.87,4.87,0,0,0-.54,0h-.71a4.87,4.87,0,0,0-.54,0c-41.67.67-80.19,7.87-107.67,19.94C187.23,106.39,117.6,38.11,66.92,11.3,47.14.84,31.68-2.37,21,1.72a7.13,7.13,0,0,0-2.58,1.72C-.84,23.32-23.93,191.65,58,325.71A962.7,962.7,0,0,0,15.26,466C10.7,486.5,5.63,513.5,7,540.82c4,80.44,101.79,155.26,105.92,158.37,21.21,16.25,37.18,27.82,51.8,37.5l.27.17a290.06,290.06,0,0,0,151.1,41.88,327.42,327.42,0,0,0,77-9.39c61-14.82,101.25-41.48,103.07-42.71,10.95-7.71,23.09-16.69,37.1-27.42,4.16-3.14,102-78,106-158.41,1.34-27.33-3.73-54.32-8.29-74.78a964.72,964.72,0,0,0-41-135.71c46.93-74.22,60.31-150.61,63.06-203,3.12-59.57-6.93-112.16-18.28-123.89A7.13,7.13,0,0,0,632.14,1.72Zm6.44,124.72c-2.81,53.61-17.19,133.36-69.7,208.83a8.25,8.25,0,0,0,1.42,11,6.83,6.83,0,0,0,4.34,1.58,7,7,0,0,0,5.35-2.65A949.6,949.6,0,0,1,616.88,469.7c4.33,19.43,9.14,45,7.9,70.28-1.32,26.62-14.9,53.23-31.62,76.33-29,40.11-67.59,69.64-68.22,70.12-13.89,10.64-25.88,19.5-36.53,27-.4.26-40.2,26.59-99,40.77-53.87,13-135.29,18.18-217.32-31-14.3-9.47-30-20.84-50.9-36.86-.59-.44-36.24-27.75-64.79-65.5C38.16,596.77,22.8,568.38,21.4,540c-1.25-25.29,3.56-50.84,7.9-70.28A946,946,0,0,1,69.55,336.33,6.8,6.8,0,0,0,72.69,335a8.23,8.23,0,0,0,1.77-10.89l0,0c.31-.72.64-1.42,1-2.14L74,323.32C-9.27,193.84,14.71,35.64,27.41,16c7-1.53,18.88,1.81,33.17,9.37,52.91,28,130.7,106.76,147.93,162.61a7.12,7.12,0,0,0,9.14,4.94,8,8,0,0,0,4.56-9.9c-.52-1.67-1.1-3.36-1.71-5.07,25.73-11.12,63.08-18,102.33-18.56h.51c40.4.6,78.81,7.84,104.58,19.54-1.46,3.56-2.75,7.06-3.8,10.48a8,8,0,0,0,4.55,9.89,7.11,7.11,0,0,0,9.14-4.93c17.24-55.85,99.84-139.59,155.38-169,18.73-9.91,28.27-10.23,32.49-9.39C631.2,24.92,641.75,66.08,638.58,126.44Z"/><path class="cls-6" d="M177.63,174.84c-21.34-32.66-66.11-90.26-124.69-105.6,0,0-23.79,71.59,25.88,200.47C85.56,238.76,107.39,183.72,177.63,174.84Z"/><path class="cls-7" d="M191.4,197.83s-4.85-9.33-13.77-23c-70.24,8.88-92.07,63.92-98.81,94.87,3.86,10,8.1,20.31,12.89,31C91.71,300.71,134.17,227.51,191.4,197.83Z"/><path class="cls-6" d="M473.06,174.84c70.24,8.88,92.07,63.92,98.81,94.87,49.67-128.88,25.88-200.47,25.88-200.47C539.17,84.58,494.4,142.18,473.06,174.84Z"/><path class="cls-7" d="M473.06,174.84c-8.92,13.66-13.77,23-13.77,23C516.52,227.51,559,300.71,559,300.71c4.79-10.69,9-21,12.89-31C565.13,238.76,543.3,183.72,473.06,174.84Z"/><path class="cls-5" d="M300.43,576.27c12.58,5,24.66,5.84,36.06,2.93,16.92-4.32,51.47-32.65,50.66-58.4-.28-8.77-4.64-17.25-15.24-24.37-8.4-5.66-18.93-4.5-28.63-3.49-23.48,2.44-69.9-7.05-82.6,22.53a30.73,30.73,0,0,0-1.35,3.91C252.07,545.34,282.93,569.27,300.43,576.27Zm-18.9-71.92c10.16-3.58,32.54-1,21.47,17.66a21.37,21.37,0,0,1-9.07,7.86c-6.27,3.21-13.5,4.78-19.43,1.27C261.27,523.32,270,508.42,281.53,504.35Z"/><path class="cls-8" d="M274.5,531.14c5.93,3.51,13.16,1.94,19.43-1.27A21.37,21.37,0,0,0,303,522c11.07-18.66-11.31-21.24-21.47-17.66C270,508.42,261.27,523.32,274.5,531.14Z"/><path class="cls-8" d="M400.37,350.89c8.23-15.18,30.14-36.8,52.51-48.27,16.85-8.65,40.35-13.18,52.22-7.07,14.5,7.47,4.68,25.07-7.68,39C472,363.34,371.8,403.56,400.37,350.89Z"/><path class="cls-8" d="M416.51,414.49c3.15-14.12,13.69-33.05,25.65-41.88,9-6.64,22.46-8.45,30.21-1,9.46,9.08,5.65,25.41-.09,37.85C460.47,435.05,405.59,463.47,416.51,414.49Z"/><path class="cls-5" d="M507.18,356.4c-19.14-6.31-40.26-1.1-62,5.61-30,9.23-45.37,57.23-22.9,87.64,37.92,51.3,99.92-26.31,117.28-66.83C529.67,368.28,518.79,360.22,507.18,356.4Zm-45.53,43.26c-3.75,9-9.66,17.61-18.1,20.85-18.82,7.23-21.42-13.59-13.14-28.65,7.28-13.24,31.16-34,34.25-7.75C465.29,389.41,463.69,394.77,461.65,399.66Z"/><path class="cls-8" d="M147.62,334.78c-12.36-14-22.18-31.56-7.68-39,11.87-6.12,35.37-1.58,52.22,7.06,22.36,11.48,44.28,33.1,52.51,48.28C273.23,403.75,173.05,363.53,147.62,334.78Z"/><path class="cls-8" d="M172.76,409.64c-5.74-12.44-9.56-28.78-.09-37.85,7.75-7.43,21.19-5.63,30.21,1,12,8.82,22.5,27.76,25.65,41.88C239.45,463.67,184.57,435.25,172.76,409.64Z"/><path class="cls-5" d="M105.51,383c17.36,40.52,79.36,118.12,117.27,66.83,22.48-30.41,7.1-78.41-22.89-87.65-21.77-6.7-42.89-11.91-62-5.61C126.25,360.42,115.37,368.48,105.51,383Zm74.86,1.29c3.1-26.27,27-5.49,34.26,7.74,8.28,15.06,5.68,35.89-13.14,28.66-8.44-3.24-14.35-11.88-18.1-20.85C181.35,395,179.75,389.6,180.37,384.31Z"/><path class="cls-9" d="M446,618.08c-2.68,2.36-5.33,4.82-8.06,7.35-17.37,16.15-39,36.24-87.24,44.85-1.37.25-2.73.48-4.07.69-44.83,7.06-72.23-4.42-94.38-13.7-2-.83-3.92-1.64-5.83-2.42a8.17,8.17,0,0,1-4.4-10.08,6.93,6.93,0,0,1,9.23-4.5c2,.79,3.93,1.62,6,2.47,22.24,9.31,47.44,19.8,90.8,12.14,44.34-7.91,63.47-25.69,80.35-41.38,2.82-2.62,5.58-5.18,8.36-7.62a6.93,6.93,0,0,1,10.19,1.23A8.2,8.2,0,0,1,446,618.08Z"/><path class="cls-10" d="M898.78,416.81V258H791V184.34h306.15V258H989.41V416.81Z"/><path class="cls-10" d="M1265.26,273.93c64.86,3.29,156,7.79,155.85,66.08,0,66.42-76.11,82.16-157.75,82.16-81.47-.18-149.1-10-157.75-82.16h95c10.38,18,34.42,22.66,62.79,22.66,28.19,0,62.79-4.67,62.79-22.66,0-10.21-28.2-11.76-64.69-13.49-64.87-3.29-156-7.79-155.85-65.9,0-66.42,76.11-82.34,157.75-82.34,81.47.52,149.1,9.69,157.75,82.34h-95c-10.38-18.34-34.42-22.66-62.79-22.66-28.19,0-62.79,4.15-62.79,22.66C1200.57,270.82,1228.76,272.21,1265.26,273.93Z"/><path class="cls-10" d="M1657,184h90.8V308.87c.35,87.87-71.6,113.12-158.78,113.3-87.18-.18-159.13-25.43-158.79-113.3V184h90.64V303.17c-.35,38.22,31,44.79,68.15,45.31,37-.52,68.5-7.09,68-45.31Z"/><path class="cls-10" d="M1870.4,337.07v79.39h-90.63V184h90.63v79.39H1910L1995.28,184h119L1993.73,300.23l120.56,116.23h-119L1910,337.07Z"/><path class="cls-10" d="M2208.69,184V416.46h-90.64V184Z"/><path class="cls-11" d="M881.66,457.05V689.52H791V457.05Z"/><path class="cls-11" d="M1147.64,457.05h90.81V689.52h-102l-124.88-142v142H920.88V457.05h124.71L1147.64,580.2Z"/><path class="cls-11" d="M1498.91,457.05h90.8V581.93c.35,87.87-71.6,113.12-158.78,113.29-87.18-.17-159.13-25.42-158.79-113.29V457.05h90.64V576.22c-.35,38.23,31,44.8,68.15,45.32,37-.52,68.49-7.09,68-45.32Z"/></g></g></svg>