<svg xmlns="http://www.w3.org/2000/svg" viewBox="0 0 30.56 57.94"><defs><style>.cls-1{fill:#010101;}.cls-2{fill:#f4af40;}.cls-3{fill:#ee6d69;}.cls-4{fill:#f58640;}.cls-5{fill:#d15c57;}.cls-6{fill:#dadfe1;}.cls-7{fill:#95a5a5;}</style></defs><g id="Layer_2" data-name="Layer 2"><g id="Layer_1-2" data-name="Layer 1"><path class="cls-1" d="M25.65,8.19A5.46,5.46,0,0,0,27.72,7c.9-.87,1.16-1.62,1.43-1.46s.3,1.81-1.1,3.94-2.67,2.16-2.67,2.16Z"/><path class="cls-1" d="M22.42,4c-3.19-1.2-4.3-4.41-5.32-3.9s.62,5.27,2.09,6.69S22.42,4,22.42,4Z"/><path class="cls-1" d="M20.28,4.3c-3.92.28-6.52-2.21-7.37-1.29s3,4.62,5.2,5.3S20.28,4.3,20.28,4.3Z"/><path class="cls-1" d="M18.1,9.65c-.21-1.27-.58-1.34-.92-2.07a2.63,2.63,0,0,1,.41-3.23c1-1.08,2.73-2.85,3.79-2.81a1.77,1.77,0,0,0,2.46.2h0a2.88,2.88,0,0,1,2.49.5c1.17.91-.06,2.17-.06,2.17s.43,1.22-2,2.29c2.6,1.5,6.77,8.51,1.27,16.84C22,28.92,18.8,29.71,18.8,29.71A6.19,6.19,0,0,1,18,32.22c-.66,1-1.92,1.38-2.16,2.12s-.24,2.35-.59,2.49-.43-3.25-1.38-5.51-1.14-4.06-1.82-4.46c-1.27-.73-4.62,2.62-8.26.5S0,22.94,0,22.94s10.63,6.42,17.13-3.41a10.28,10.28,0,0,0,1-9.88Z"/><path class="cls-1" d="M21.38,1.54a1.78,1.78,0,0,0,1.28.61c.7.66,1.43,2-.24,3.84A23.37,23.37,0,0,1,18.1,9.65a8.46,8.46,0,0,0-.92-2.07,2.63,2.63,0,0,1,.41-3.23C18.55,3.27,20.32,1.5,21.38,1.54Z"/><path class="cls-1" d="M21.82,3.13c.2.16.45.19.55.08s0-.35-.17-.5-.45-.19-.56-.08S21.62,3,21.82,3.13Z"/><path class="cls-1" d="M25.44,1.75s1.09-.05,1,.49a5.75,5.75,0,0,0-1.09.56S24.5,2.38,25.44,1.75Z"/><path class="cls-1" d="M25.47,4.75a3.35,3.35,0,0,1-2.3.91.13.13,0,0,1-.11-.12.13.13,0,0,1,.13-.11,3.07,3.07,0,0,0,2.32-1c.7-.79.73-1.11.73-1.12a.11.11,0,0,1,.12-.1.11.11,0,0,1,.12.11s0,.4-.79,1.25Z"/><path class="cls-1" d="M13.45,27.76a32.09,32.09,0,0,1-.72,5.4,22.22,22.22,0,0,0-1,2.59c0,.34,1.26-.7,2.47-2.54a10.65,10.65,0,0,0,1.51-3.83Z"/><path class="cls-1" d="M26.5,11.27a5.29,5.29,0,0,0,2.3-1.09c.95-.84,1.17-1.61,1.5-1.41s.58,2-.83,4.09-2.89,2-2.89,2Z"/><path class="cls-1" d="M27.56,11l0,0a7.53,7.53,0,0,1-1.82.54.11.11,0,0,1-.13-.1.1.1,0,0,1,.1-.12,8.13,8.13,0,0,0,1.75-.52.13.13,0,0,1,.16,0A.12.12,0,0,1,27.56,11Z"/><path class="cls-1" d="M22.18,13.06a5.32,5.32,0,0,0-3.56-1.92,10.39,10.39,0,0,1-1.49,8.39C11.43,28.15,2.55,24.27.46,23.19L0,22.94s.08.39.12.52c.26.81,1.09,2.4,3.68,3.9,3.64,2.12,7-1.23,8.26-.5.68.4.87,2.21,1.82,4.46s1,5.65,1.38,5.51.35-1.74.59-2.49,1.5-1.11,2.16-2.12a6.19,6.19,0,0,0,.79-2.51s3.22-.79,6.77-6.17a14.6,14.6,0,0,0,2.66-9.3A4.7,4.7,0,0,1,22.18,13.06Z"/><path class="cls-1" d="M28.31,14.32h0a4.53,4.53,0,0,1-3.39.54.11.11,0,0,1-.09-.13.12.12,0,0,1,.14-.09,4.35,4.35,0,0,0,3.2-.5.11.11,0,0,1,.16,0A.1.1,0,0,1,28.31,14.32Z"/><path class="cls-1" d="M3.62,26A6.42,6.42,0,0,1,.75,24.7a7.66,7.66,0,0,0,1,1.17A3.63,3.63,0,0,0,3.62,26Z"/><path class="cls-1" d="M4.41,27.67A3.67,3.67,0,0,0,6.78,26.4a6.4,6.4,0,0,1-3.2.72l-.23,0,.45.27A5.84,5.84,0,0,0,4.41,27.67Z"/><path class="cls-1" d="M18.88,29.79a.09.09,0,0,1-.09,0,.11.11,0,0,1-.11-.12,23.27,23.27,0,0,0,.11-2.81.1.1,0,0,1,.09-.12.12.12,0,0,1,.14.09,21.16,21.16,0,0,1-.1,2.86A.1.1,0,0,1,18.88,29.79Z"/><polygon class="cls-2" points="11.94 27.21 14.19 41.3 13.68 26.52 11.94 27.21"/><polygon class="cls-3" points="11.94 27.21 9.5 40.31 16.51 57.94 14.19 41.3 11.94 27.21"/><polygon class="cls-4" points="15.49 27.24 14.19 41.3 13.68 26.52 15.49 27.24"/><polygon class="cls-5" points="15.49 27.24 18.06 43.47 16.51 57.94 14.19 41.3 15.49 27.24"/><polygon class="cls-6" points="11.94 27.21 13.68 26.52 13.68 7.89 8.98 7.89 11.94 27.21"/><polygon class="cls-7" points="18.6 10.25 13.68 7.89 13.68 26.52 15.49 27.24 19.2 20.8 18.6 10.25"/></g></g></svg>