<svg xmlns="http://www.w3.org/2000/svg" viewBox="0 0 34.36 990.59"><defs><style>.cls-1{fill:#d2d7d3;}.cls-1,.cls-3{opacity:0.52;}.cls-2,.cls-3,.cls-4{fill:#dadfe1;}.cls-2{opacity:0.24;}.cls-4{opacity:0.21;}</style></defs><g id="Layer_2" data-name="Layer 2"><g id="Layer_1-2" data-name="Layer 1"><polygon class="cls-1" points="14.54 58.76 11.6 107.42 21.02 245.7 21.32 0 14.54 58.76"/><polygon class="cls-2" points="24.74 53.07 28.71 134.48 15.96 311.84 17.98 68.59 21.32 0 24.74 53.07"/><polygon class="cls-3" points="17 186.65 21.02 245.7 26.14 428.26 17 598.6 4.93 370.52 17 186.65"/><polygon class="cls-4" points="13.04 340.67 17 598.6 22.01 990.59 34.36 990.59 26.14 854.32 15.96 311.84 13.04 340.67"/><polygon class="cls-3" points="4.21 990.59 22.01 990.59 17 598.6 14.14 412.29 8.57 642.78 0 862.01 4.21 990.59"/><polygon class="cls-3" points="17 598.6 11.01 875.85 14.92 990.59 22.01 990.59 17 598.6"/></g></g></svg>