<svg xmlns="http://www.w3.org/2000/svg" viewBox="0 0 528.21 493.06"><defs><style>.cls-1{fill:#dadfe1;}</style></defs><g id="Layer_2" data-name="Layer 2"><g id="Layer_1-2" data-name="Layer 1"><rect class="cls-1" x="451.33" y="438.68" width="1.56" height="1.56" transform="translate(-178.33 448.41) rotate(-45)"/><rect class="cls-1" x="61.33" y="281.18" width="1.56" height="1.56" transform="translate(-181.19 126.5) rotate(-45)"/><rect class="cls-1" x="53.83" y="491.18" width="1.56" height="1.56" transform="translate(-331.88 182.71) rotate(-45)"/><rect class="cls-1" x="8.83" y="213.68" width="1.56" height="1.56" transform="translate(-148.83 69.61) rotate(-45)"/><rect class="cls-1" x="459.93" y="175.32" width="1.56" height="1.56" transform="translate(10.42 377.35) rotate(-45)"/><rect class="cls-1" x="375.23" y="71.42" width="1.56" height="1.56" transform="translate(59.08 287.04) rotate(-45)"/><rect class="cls-1" x="259.56" y="70.32" width="1.56" height="1.56" transform="translate(25.97 204.91) rotate(-45)"/><rect class="cls-1" x="414.93" y="32.82" width="1.56" height="1.56" transform="translate(98 303.79) rotate(-45)"/><rect class="cls-1" x="437.43" y="70.32" width="1.56" height="1.56" transform="translate(78.07 330.69) rotate(-45)"/><rect class="cls-1" x="517.43" y="0.32" width="1.56" height="1.56" transform="translate(151 366.75) rotate(-45)"/><rect class="cls-1" x="220.32" y="3.83" width="1.56" height="1.56" transform="translate(61.5 157.69) rotate(-45)"/><rect class="cls-1" x="0.32" y="12.83" width="1.56" height="1.56" transform="translate(-9.3 4.77) rotate(-45)"/><rect class="cls-1" x="478.99" y="114.22" width="1.56" height="1.56" transform="translate(59.2 372.93) rotate(-45)"/><rect class="cls-1" x="488.83" y="243.68" width="1.56" height="1.56" transform="translate(-29.46 417.81) rotate(-45)"/><rect class="cls-1" x="526.33" y="303.68" width="1.56" height="1.56" transform="translate(-60.9 461.9) rotate(-45)"/><rect class="cls-1" x="526.33" y="198.68" width="1.56" height="1.56" transform="translate(13.35 431.15) rotate(-45)"/><rect class="cls-1" x="63.16" y="183.68" width="1.56" height="1.56" transform="translate(-111.71 99.24) rotate(-45)"/><rect class="cls-1" x="109.26" y="32.82" width="1.56" height="1.56" transform="translate(8.47 87.65) rotate(-45)"/><rect class="cls-1" x="25.66" y="78.68" width="1.56" height="1.56" transform="translate(-48.44 41.97) rotate(-45)"/><rect class="cls-1" x="138.16" y="101.18" width="1.56" height="1.56" transform="translate(-31.4 128.11) rotate(-45)"/><rect class="cls-1" x="175.66" y="56.18" width="1.56" height="1.56" transform="translate(11.4 141.45) rotate(-45)"/><polygon class="cls-1" points="254.07 162.31 255.82 161.61 255.82 142.98 251.12 142.98 254.07 162.31"/></g></g></svg>